<svg width="40" height="50" viewBox="0 0 40 50" fill="none" xmlns="http://www.w3.org/2000/svg">
<g clip-path="url(#clip0_1_2520)">
<path d="M21.8815 0.85268C21.8423 0.832831 21.7834 0.812982 21.7245 0.822906C21.3516 0.892378 21.2143 2.1131 21.2731 3.01624C21.3516 4.24688 21.803 5.18972 22.1072 5.68595C22.274 5.96384 22.588 6.46006 23.0197 7.04561C26.9151 12.4545 31.1246 13.2485 35.805 18.3398C36.6684 19.2826 38.0716 20.9301 38.5033 23.3517C38.6603 24.2151 38.6505 24.9396 38.6211 25.3862C38.4935 25.4259 38.3659 25.4656 38.2384 25.5053C38.2188 24.8801 38.1305 23.7884 37.6497 22.5875C36.1484 18.8162 32.6258 18.3993 26.6306 13.2782C24.8938 11.7896 23.8145 10.6582 22.8823 9.15955C21.7147 7.29373 21.1652 5.5073 20.8905 4.29651C20.8708 4.21711 20.8022 3.83005 20.7727 3.30405C20.7139 2.12303 20.8807 0.326678 21.5283 0.177809C21.6166 0.15796 21.7539 0.15796 21.9502 0.277055C21.9109 0.465622 21.9011 0.654189 21.8815 0.85268Z" fill="#25080A" stroke="#25080A" stroke-width="0.0991473" stroke-miterlimit="10"/>
<path d="M22.0894 0.353508C21.9087 0.246071 21.7061 0.404831 21.738 0.612594C21.7556 0.727094 21.8428 0.816269 21.9498 0.860571C22.0037 0.88289 22.0503 0.907684 22.0895 0.932479C22.4733 1.18809 22.616 1.76879 22.5091 2.42478C22.4987 2.48851 22.4921 2.55305 22.4912 2.61762C22.4807 3.36368 22.3524 3.93 22.3054 4.16789C22.0601 5.24967 21.6382 6.66888 21.334 7.8896C21.334 7.8896 21.1181 8.76297 20.9808 9.50731C20.5785 11.6609 21.4812 14.8467 23.4142 17.1989C23.7184 17.576 26.976 21.4069 32.0587 21.129C33.0694 21.0694 36.0326 20.9106 38.0343 18.628C40.8504 15.4124 39.6435 10.4303 38.1521 7.76058C38.0539 7.59187 35.9934 3.98925 32.7259 3.31438C32.2059 3.20521 31.3032 3.02656 30.3808 3.47317C29.3407 3.98925 28.8992 4.99163 28.8599 5.09087C28.8599 5.09087 28.7128 5.43823 28.6539 5.83522C28.4969 6.85745 28.7912 9.01108 29.9295 10.8174C31.8326 13.8256 35.3728 14.7097 36.5518 14.9341C36.7031 14.9629 36.8375 14.8386 36.8277 14.6849C36.8216 14.5898 36.7599 14.5084 36.6707 14.475C35.0198 13.8565 32.8599 12.7189 31.1069 10.599C30.4691 9.8249 28.6833 7.66134 29.1935 5.73597C29.2622 5.48786 29.429 4.92216 29.9098 4.58472C30.214 4.36638 30.7929 4.13812 32.1666 4.52517C32.5787 4.64427 34.1978 5.09087 35.9639 6.73835C36.0719 6.8376 36.9157 7.63157 37.4848 8.47515C39.1725 10.9563 39.7024 15.6208 37.7596 18.0524C35.385 21.0297 28.7618 21.4069 23.787 16.4843C22.119 14.3604 21.6872 12.5641 21.5597 11.4029C21.0789 6.917 24.2973 3.05634 22.7371 0.962252C22.635 0.792501 22.4406 0.562375 22.0894 0.353508Z" fill="#25080A" stroke="#25080A" stroke-width="0.247868" stroke-miterlimit="10"/>
<path d="M21.8737 49.1468C21.8344 49.1666 21.7756 49.1865 21.7167 49.1766C21.3438 49.1071 21.2065 47.8864 21.2653 46.9832C21.3438 45.7526 21.7952 44.8097 22.0994 44.3135C22.2662 44.0356 22.5802 43.5394 23.0119 42.9538C26.9073 37.545 31.1167 36.751 35.7971 31.6597C36.6606 30.7168 38.0638 29.0694 38.4955 26.6478C38.6525 25.7843 38.6427 25.0598 38.6132 24.6132C38.4857 24.5735 38.3581 24.5338 38.2306 24.4941C38.2109 25.1194 38.1226 26.2111 37.6418 27.412C36.1406 31.1833 32.618 31.6001 26.6228 36.7212C24.886 38.2099 23.8067 39.3413 22.8745 40.8399C21.7069 42.7057 21.1574 44.4922 20.8827 45.703C20.863 45.7823 20.7943 46.1694 20.7649 46.6954C20.706 47.8764 20.8728 49.6728 21.5204 49.8216C21.6088 49.8415 21.7461 49.8415 21.9424 49.7224C21.9031 49.5338 21.8933 49.3453 21.8737 49.1468Z" fill="#25080A" stroke="#25080A" stroke-width="0.0991473" stroke-miterlimit="10"/>
<path d="M22.0818 49.6411C21.8997 49.7475 21.6979 49.587 21.7299 49.3786C21.7476 49.2629 21.8359 49.1727 21.944 49.1277C21.9971 49.1056 22.043 49.0811 22.0817 49.0566C22.4739 48.7954 22.6143 48.1948 22.4939 47.5212C22.4877 47.4863 22.4841 47.4507 22.4838 47.4152C22.4779 46.6476 22.3455 46.0637 22.2976 45.8212C22.0523 44.7394 21.6304 43.3202 21.3262 42.0995C21.3262 42.0995 21.1103 41.2261 20.973 40.4818C20.5707 38.3281 21.4734 35.1424 23.4064 32.7902C23.7105 32.4131 26.9682 28.5822 32.0509 28.8601C33.0615 28.9197 36.0248 29.0784 38.0265 31.3611C40.8426 34.5767 39.6357 39.5588 38.1442 42.2285C38.0461 42.3972 35.9856 45.9998 32.7181 46.6747C32.1981 46.7839 31.2954 46.9625 30.373 46.5159C29.3329 45.9998 28.8914 44.9975 28.8521 44.8982C28.8521 44.8982 28.7049 44.5509 28.6461 44.1539C28.4891 43.1316 28.7834 40.978 29.9216 39.1717C31.8248 36.1635 35.365 35.2794 36.544 35.055C36.6953 35.0262 36.8297 35.1505 36.8199 35.3042C36.8138 35.3993 36.752 35.4807 36.6629 35.5141C35.012 36.1326 32.852 37.2702 31.0991 39.3901C30.4613 40.1642 28.6755 42.3278 29.1857 44.2531C29.2544 44.5012 29.4212 45.0669 29.902 45.4044C30.2062 45.6227 30.7851 45.851 32.1588 45.4639C32.5709 45.3448 34.1899 44.8982 35.9561 43.2507C36.0641 43.1515 36.9079 42.3575 37.477 41.5139C39.1647 39.0328 39.6946 34.3682 37.7518 31.9367C35.3772 28.9594 28.754 28.5822 23.7792 33.5048C22.1112 35.6287 21.6794 37.425 21.5519 38.5862C21.0711 43.0721 24.2895 46.9328 22.7293 49.0268C22.6272 49.2039 22.4329 49.4359 22.0818 49.6411Z" fill="#25080A" stroke="#25080A" stroke-width="0.247868" stroke-miterlimit="10"/>
<path d="M17.9562 0.85268C17.9955 0.832831 18.0543 0.812982 18.1132 0.822906C18.4861 0.892378 18.6234 2.1131 18.5646 3.01624C18.4861 4.24688 18.0347 5.18972 17.7305 5.68595C17.5637 5.96384 17.2497 6.46006 16.818 7.04561C12.9226 12.4545 8.71316 13.2485 4.03275 18.3398C3.16928 19.2826 1.76614 20.9301 1.33441 23.3517C1.17741 24.2151 1.18723 24.9396 1.21666 25.3862C1.34422 25.4259 1.47178 25.4656 1.59934 25.5053C1.61896 24.8801 1.70727 23.7884 2.18807 22.5875C3.68933 18.8162 7.2119 18.3993 13.2071 13.2782C14.9439 11.7896 16.0232 10.6582 16.9554 9.15955C18.123 7.29373 18.6725 5.5073 18.9472 4.29651C18.9669 4.21711 19.0356 3.83005 19.065 3.30405C19.1239 2.12303 18.9571 0.326678 18.3095 0.177809C18.2211 0.15796 18.0838 0.15796 17.8875 0.277055C17.917 0.465622 17.9366 0.654189 17.9562 0.85268Z" fill="#25080A" stroke="#25080A" stroke-width="0.0991473" stroke-miterlimit="10"/>
<path d="M17.7494 0.352653C17.9306 0.246119 18.1331 0.404831 18.1012 0.612594C18.0836 0.727094 17.9964 0.816269 17.8894 0.860571C17.8355 0.88289 17.7889 0.907684 17.7497 0.932479C17.3575 1.19367 17.2171 1.79432 17.3375 2.46788C17.3437 2.50284 17.3473 2.53841 17.3476 2.57392C17.3535 3.34154 17.4858 3.92538 17.5338 4.16789C17.7791 5.24967 18.201 6.66888 18.5052 7.8896C18.5052 7.8896 18.7211 8.76297 18.8584 9.50731C19.2607 11.6609 18.358 14.8467 16.425 17.1989C16.1208 17.576 12.8632 21.4069 7.7805 21.129C6.76985 21.0694 3.80657 20.9106 1.80489 18.628C-1.02101 15.4124 0.185885 10.4204 1.67733 7.75066C1.77546 7.58194 3.83601 3.97932 7.10346 3.30445C7.62351 3.19528 8.52623 3.01664 9.44857 3.46324C10.4887 3.97932 10.9302 4.9817 10.9695 5.08095C10.9695 5.08095 11.1166 5.42831 11.1755 5.82529C11.3325 6.84752 11.0381 9.00116 9.89993 10.8074C7.99679 13.8157 4.45662 14.6998 3.27761 14.9241C3.12627 14.9529 2.99187 14.8287 3.0017 14.6749C3.00779 14.5799 3.06953 14.4984 3.15872 14.465C4.8096 13.8466 6.96953 12.709 8.72247 10.5891C9.36026 9.81497 11.1461 7.65141 10.6358 5.72605C10.5672 5.47793 10.4003 4.91223 9.91955 4.5748C9.61538 4.35646 9.03646 4.12819 7.66276 4.51525C7.25064 4.63434 5.63164 5.08095 3.86545 6.72843C3.75751 6.82768 2.91367 7.62164 2.34456 8.46523C0.656868 10.9464 0.127012 15.6109 2.06982 18.0424C4.44437 21.0198 11.0676 21.3969 16.0423 16.4744C17.7104 14.3505 18.1421 12.5542 18.2697 11.393C18.7505 6.90707 15.5321 3.04641 17.0922 0.952328C17.1945 0.789778 17.3947 0.561221 17.7494 0.352653Z" fill="#25080A" stroke="#25080A" stroke-width="0.247868" stroke-miterlimit="10"/>
<path d="M17.9659 49.1468C18.0052 49.1666 18.0641 49.1865 18.1229 49.1766C18.4958 49.1071 18.6332 47.8864 18.5743 46.9832C18.4958 45.7526 18.0444 44.8097 17.7403 44.3135C17.5735 44.0356 17.2595 43.5394 16.8277 42.9538C12.9421 37.545 8.72288 36.751 4.05229 31.6597C3.18882 30.7168 1.78568 29.0694 1.35394 26.6478C1.19695 25.7843 1.20676 25.0598 1.23619 24.6132C1.36375 24.5735 1.49131 24.5338 1.61887 24.4941C1.63849 25.1194 1.7268 26.2111 2.2076 27.412C3.70886 31.1833 7.23143 31.6001 13.2267 36.7212C14.9634 38.2099 16.0428 39.3413 16.9749 40.8399C18.1426 42.7057 18.692 44.4922 18.9668 45.703C18.9864 45.7823 19.0551 46.1694 19.0845 46.6954C19.1434 47.8764 18.9766 49.6728 18.329 49.8216C18.2407 49.8415 18.1033 49.8415 17.9071 49.7224C17.9267 49.5338 17.9463 49.3453 17.9659 49.1468Z" fill="#25080A" stroke="#25080A" stroke-width="0.0991473" stroke-miterlimit="10"/>
<path d="M17.7607 49.6418C17.9431 49.7476 18.145 49.587 18.113 49.3786C18.0952 49.2629 18.0069 49.1727 17.8988 49.1277C17.8457 49.1056 17.7998 49.0811 17.7611 49.0566C17.369 48.7954 17.2285 48.1948 17.3489 47.5212C17.3552 47.4863 17.3587 47.4507 17.359 47.4152C17.365 46.6476 17.4973 46.0637 17.5452 45.8212C17.7905 44.7394 18.2125 43.3202 18.5166 42.0995C18.5166 42.0995 18.7325 41.2261 18.8699 40.4818C19.2722 38.3281 18.3695 35.1424 16.4365 32.7902C16.1323 32.4131 12.8746 28.5822 7.79194 28.8601C6.78129 28.9197 3.81801 29.0784 1.81633 31.3611C-0.99976 34.5767 0.207137 39.5588 1.69859 42.2285C1.79671 42.3972 3.85726 45.9998 7.12471 46.6747C7.64476 46.7839 8.54748 46.9625 9.46982 46.5159C10.5099 45.9998 10.9515 44.9975 10.9907 44.8982C10.9907 44.8982 11.1379 44.5509 11.1968 44.1539C11.3538 43.1316 11.0594 40.978 9.92118 39.1717C8.01804 36.1635 4.47787 35.2794 3.29886 35.055C3.14753 35.0262 3.01312 35.1505 3.02296 35.3042C3.02904 35.3993 3.09079 35.4807 3.17997 35.5141C4.83085 36.1326 6.99078 37.2702 8.74372 39.3901C9.38151 40.1642 11.1673 42.3278 10.6571 44.2531C10.5884 44.5012 10.4216 45.0669 9.94081 45.4044C9.63663 45.6227 9.05771 45.851 7.68401 45.4639C7.2719 45.3448 5.65289 44.8982 3.8867 43.2507C3.77877 43.1515 2.93492 42.3575 2.36581 41.5139C0.678121 39.0328 0.148264 34.3682 2.09107 31.9367C4.46562 28.9594 11.0888 28.5822 16.0636 33.5048C17.7317 35.6287 18.1634 37.425 18.291 38.5862C18.7692 43.0485 15.5871 46.8921 17.0893 48.9936C17.105 49.0156 17.1196 49.0388 17.1334 49.0621C17.2349 49.2342 17.4297 49.4497 17.7607 49.6418Z" fill="#25080A" stroke="#25080A" stroke-width="0.247868" stroke-miterlimit="10"/>
<path d="M19.8599 22.1129C19.871 22.0448 19.9689 22.0448 19.98 22.1129L20.2855 23.989C20.3442 24.3494 20.6261 24.6323 20.9862 24.6923L22.839 25.001C22.9068 25.0123 22.9068 25.1097 22.839 25.121L20.9862 25.4297C20.6261 25.4897 20.3442 25.7726 20.2855 26.133L19.98 28.0091C19.9689 28.0772 19.871 28.0772 19.8599 28.0091L19.5543 26.133C19.4957 25.7726 19.2138 25.4897 18.8536 25.4297L17.0008 25.121C16.9331 25.1097 16.9331 25.0123 17.0008 25.001L18.8536 24.6923C19.2138 24.6323 19.4957 24.3494 19.5543 23.989L19.8599 22.1129Z" fill="black"/>
</g>
<defs>
<clipPath id="clip0_1_2520">
<rect width="39.8374" height="50" fill="white"/>
</clipPath>
</defs>
</svg>
